<svg version="1.2" xmlns="http://www.w3.org/2000/svg" viewBox="0 0 1800 585" width="1800" height="585">
	<title>mekeber logo</title>
	<defs>
		<linearGradient id="g1" x2="1" gradientUnits="userSpaceOnUse" gradientTransform="matrix(726.769,0,0,202.865,897.656,112.151)">
			<stop offset="0" stop-color="#3a5ea5"/>
			<stop offset="1" stop-color="#5795cd"/>
		</linearGradient>
		<linearGradient id="g2" x2="1" gradientUnits="userSpaceOnUse" gradientTransform="matrix(726.769,0,0,178.979,897.656,136.037)">
			<stop offset="0" stop-color="#5795cd"/>
			<stop offset="1" stop-color="#3a5ea5"/>
		</linearGradient>
		<linearGradient id="g3" x2="1" gradientUnits="userSpaceOnUse" gradientTransform="matrix(400.349,0,0,161.445,896.176,115.373)">
			<stop offset="0" stop-color="#3a5ea5"/>
			<stop offset="1" stop-color="#5795cd"/>
		</linearGradient>
		<linearGradient id="g4" x2="1" gradientUnits="userSpaceOnUse" gradientTransform="matrix(400.349,0,0,152.584,896.176,124.234)">
			<stop offset="0" stop-color="#5795cd"/>
			<stop offset="1" stop-color="#3a5ea5"/>
		</linearGradient>
		<linearGradient id="g5" x2="1" gradientUnits="userSpaceOnUse" gradientTransform="matrix(550.562,0,0,188.791,900.694,103)">
			<stop offset="0" stop-color="#e6b740"/>
			<stop offset="1" stop-color="#cf602d"/>
		</linearGradient>
		<linearGradient id="g6" x2="1" gradientUnits="userSpaceOnUse" gradientTransform="matrix(550.562,0,0,173.863,900.694,117.929)">
			<stop offset="0" stop-color="#cf602d"/>
			<stop offset="1" stop-color="#e6b740"/>
		</linearGradient>
		<linearGradient id="g7" x2="1" gradientUnits="userSpaceOnUse" gradientTransform="matrix(726.769,0,0,202.865,176,112.151)">
			<stop offset="0" stop-color="#3a5ea5"/>
			<stop offset="1" stop-color="#5795cd"/>
		</linearGradient>
		<linearGradient id="g8" x2="1" gradientUnits="userSpaceOnUse" gradientTransform="matrix(726.769,0,0,178.979,176,136.037)">
			<stop offset="0" stop-color="#5795cd"/>
			<stop offset="1" stop-color="#3a5ea5"/>
		</linearGradient>
		<linearGradient id="g9" x2="1" gradientUnits="userSpaceOnUse" gradientTransform="matrix(400.349,0,0,161.445,503.901,115.373)">
			<stop offset="0" stop-color="#3a5ea5"/>
			<stop offset="1" stop-color="#5795cd"/>
		</linearGradient>
		<linearGradient id="g10" x2="1" gradientUnits="userSpaceOnUse" gradientTransform="matrix(400.349,0,0,152.584,503.901,124.234)">
			<stop offset="0" stop-color="#5795cd"/>
			<stop offset="1" stop-color="#3a5ea5"/>
		</linearGradient>
		<linearGradient id="g11" x2="1" gradientUnits="userSpaceOnUse" gradientTransform="matrix(550.562,0,0,188.791,349.17,103)">
			<stop offset="0" stop-color="#e6b740"/>
			<stop offset="1" stop-color="#cf602d"/>
		</linearGradient>
		<linearGradient id="g12" x2="1" gradientUnits="userSpaceOnUse" gradientTransform="matrix(550.562,0,0,173.863,349.17,117.929)">
			<stop offset="0" stop-color="#cf602d"/>
			<stop offset="1" stop-color="#e6b740"/>
		</linearGradient>
	</defs>
	<style>
		.s0 { fill: url(#g1) } 
		.s1 { fill: url(#g2) } 
		.s2 { fill: url(#g3) } 
		.s3 { fill: url(#g4) } 
		.s4 { fill: url(#g5) } 
		.s5 { fill: url(#g6) } 
		.s6 { fill: url(#g7) } 
		.s7 { fill: url(#g8) } 
		.s8 { fill: url(#g9) } 
		.s9 { fill: url(#g10) } 
		.s10 { fill: url(#g11) } 
		.s11 { fill: url(#g12) } 
		.s12 { fill: #555555 } 
	</style>
	<g id="5 1 ">
		<path id="&lt;Path&gt;" class="s0" d="m1624.4 152.8c-251.7-152.4-411 175.4-726.7 114.3 355.7 164.3 535.5-149.3 726.7-114.3z"/>
		<path id="&lt;Path&gt;" class="s1" d="m897.7 267.1c355.7 164.3 535.5-149.3 726.7-114.3-243.4-90.9-379 222-726.7 114.3z"/>
		<path id="&lt;Path&gt;" class="s2" d="m1296.5 126.7c-158.4-60.6-215 142-400.3 139.9 218.7 56.5 288.3-140.1 400.3-139.9z"/>
		<path id="&lt;Path&gt;" class="s3" d="m896.2 266.6c218.7 56.5 288.3-140.1 400.3-139.9-147.4-26.5-192 165.1-400.3 139.9z"/>
		<path id="&lt;Path&gt;" class="s4" d="m1451.3 124.8c-205.6-97.9-302.8 166.8-550.6 144.2 286.6 98.9 400.6-156.4 550.6-144.2z"/>
		<path id="&lt;Path&gt;" class="s5" d="m900.7 269c286.6 98.9 400.6-156.4 550.6-144.2-194.4-51.2-274.6 200.2-550.6 144.2z"/>
	</g>
	<g id="5 1  copy">
		<path id="&lt;Path&gt;" class="s6" d="m176 152.8c251.7-152.4 411 175.4 726.8 114.3-355.8 164.3-535.5-149.3-726.8-114.3z"/>
		<path id="&lt;Path&gt;" class="s7" d="m902.8 267.1c-355.8 164.3-535.5-149.3-726.8-114.3 243.4-90.9 379 222 726.8 114.3z"/>
		<path id="&lt;Path&gt;" class="s8" d="m503.9 126.7c158.5-60.6 215 142 400.3 139.9-218.6 56.5-288.2-140.1-400.3-139.9z"/>
		<path id="&lt;Path&gt;" class="s9" d="m904.2 266.6c-218.6 56.5-288.2-140.1-400.3-139.9 147.4-26.5 192 165.1 400.3 139.9z"/>
		<path id="&lt;Path&gt;" class="s10" d="m349.2 124.8c205.5-97.9 302.7 166.8 550.5 144.2-286.5 98.9-400.6-156.4-550.5-144.2z"/>
		<path id="&lt;Path&gt;" class="s11" d="m899.7 269c-286.5 98.9-400.6-156.4-550.5-144.2 194.3-51.2 274.5 200.2 550.5 144.2z"/>
	</g>
	<path id="M E K E B E R" class="s12" aria-label="M E K E B E R"  d="m518 518l-0.1-114.8h-17.6l-44.7 76.1-45.6-76.1h-17.6v114.8h20.4v-75.1l37.7 62h9.5l37.7-63 0.2 76.1zm97.5-17.9v-31.6h55.5v-17.6h-55.5v-29.8h62.5v-17.9h-83.8v114.8h86.1v-17.9zm213.9 17.9h24.9l-51.2-63.5 48.3-51.3h-24l-56.7 58.9v-58.9h-21.3v114.8h21.3v-29.4l18.2-18.7zm106.1-17.8v-31.7h55.4v-17.5h-55.4v-29.9h62.5v-17.9h-83.8v114.8h86.1v-17.8zm215.1-41.8c8.9-4.8 14.8-13.5 14.8-25.3 0-18.2-14.8-29.9-42.3-29.9h-53.8v114.8h57.1c29.5 0 44.9-11.4 44.9-31.1 0-14.9-8.4-24.6-20.7-28.5zm-29.8-38.4c14.7 0 23.1 5.2 23.1 15.9 0 10.5-8.4 15.7-23.1 15.7h-30.2v-31.6zm4.3 81.3h-34.5v-33.1h34.5c16 0 24.7 5.1 24.7 16.6 0 11.4-8.7 16.5-24.7 16.5zm135.6-1.1v-31.7h55.4v-17.5h-55.4v-29.9h62.5v-17.9h-83.8v114.8h86.1v-17.8zm231.9 17.8l-26.4-37.7c15.6-6 24.4-18.8 24.4-36.2 0-25.4-18.7-40.9-48.9-40.9h-47.2v114.8h21.3v-33.4h25.9c1.5 0 3 0 4.5-0.2l23.4 33.6zm-23.4-73.9c0 14.4-9.7 22.9-28.4 22.9h-24.9v-45.7h24.9c18.7 0 28.4 8.4 28.4 22.8z"/>
</svg>